PathFileType	4	(X/Y/Z)	C:/Users/beibeiliu/ov580/test_trc/User2\sequence.24_training_dense_left.trc
DataRate	CameraRate	NumFrames	NumMarkers	Units	OrigDataRate	OrigDataStartFrame	OrigNumFrames
120	120	21	19	mm	120	28	81
Frame#	Time	ThumbCMC			ThumbMCP			ThumbIP			ThumbTip			IndexMCP			IndexPIP			IndexTip			MiddleMCP			MiddlePIP			MiddleTip			RingMCP			RingPIP			RingTip			PinkyMCP			PinkyPIP			PinkyTip			BackHand1			BackHand2			BackHand3	
		X0	Y0	Z0	X1	Y1	Z1	X2	Y2	Z2	X3	Y3	Z3	X4	Y4	Z4	X5	Y5	Z5	X6	Y6	Z6	X7	Y7	Z7	X8	Y8	Z8	X9	Y9	Z9	X10	Y10	Z10	X11	Y11	Z11	X12	Y12	Z12	X13	Y13	Z13	X14	Y14	Z14	X15	Y15	Z15	X16	Y16	Z16	X17	Y17	Z17	X18	Y18	Z18	
27	0.225	-300.322	70.976	2.39283	-303.534	92.3319	-24.3366	-297.59	100.357	-61.4841	-286.501	105.464	-84.5266	-277.382	43.7452	-73.4234	-255.003	58.0233	-98.0714	-228.957	76.2286	-93.1687	-259.421	30.3838	-78.8	-231.192	46.6985	-94.8731	-211.867	80.8214	-83.1495	-241.856	14.2827	-65.977	-218.997	33.8095	-84.7199	-205.315	61.6297	-78.051	-230.16	2.10154	-42.4555	-217.584	6.11257	-66.5652	-200.064	15.4692	-88.573	-270.719	11.2172	-9.50239	-277.664	9.58622	24.0706	-298.207	30.9493	-5.26924	
28	0.233333	-302.942	64.5846	-1.00652	-303.963	78.2747	-24.6478	-303.761	86.2187	-60.2418	-295.922	89.4353	-84.457	-279.009	33.9946	-77.5539	-256.668	46.1091	-96.5337	-232.234	74.1636	-84.417	-262.501	21.8009	-76.2628	-233.49	44.4782	-93.2884	-219.025	69.7539	-71.968	-241.891	10.1137	-70.1515	-222.611	32.0591	-84.7132	-215.385	60.0599	-67.7865	-235.34	-3.91738	-45.6518	-219.637	-5.32557	-72.9851	-207.131	1.07303	-96.2854	-267.336	-0.550772	-12.0535	-277.49	4.46583	24.8167	-299.016	22.9318	-2.11535	
29	0.241667	-297.137	55.9186	0.252556	-301.052	64.8919	-29.0098	-308.545	75.5637	-62.1683	-300.985	77.5764	-89.143	-272.587	23.9957	-77.1465	-249.489	41.3141	-96.2822	-234.647	69.2724	-75.3542	-250.786	11.2983	-78.061	-225.769	37.9502	-86.4986	-224.099	64.2901	-54.2081	-234.752	4.14271	-69.5779	-214.977	27.8127	-77.3828	-213.671	51.0352	-51.2258	-231.979	-12.2926	-47.265	-218.737	-17.0868	-75.2688	-208.143	-12.1596	-99.0799	-266.015	-5.21414	-9.96193	-272.005	-2.07659	20.5997	-294.994	15.803	-3.68763	
30	0.25	-287.795	41.5057	-6.55078	-297.757	53.4842	-34.7585	-298.584	60.3501	-64.2354	-296.36	62.9446	-92.9494	-259.796	17.3943	-84.8	-233.995	31.1696	-92.3513	-224.395	56.8226	-62.4889	-239.321	1.76291	-75.4507	-211.903	29.3114	-78.5324	-217.743	47.4766	-44.5898	-221.185	-4.73442	-69.9848	-200.685	21.1145	-67.6306	-214.377	40.0404	-40.4453	-221.811	-26.6728	-48.7474	-209.325	-30.046	-71.4153	-197.805	-29.9595	-99.9313	-256.46	-21.94	-14.0258	-265.89	-14.5671	19.7627	-286.643	3.41861	-8.30959	
31	0.258333	-281.853	38.3969	-7.26481	-289.282	51.025	-36.5456	-290.586	55.8703	-66.0674	-293.568	64.4625	-92.2512	-245.862	11.9575	-83.8544	-222.155	31.0669	-89.724	-217.542	51.4284	-58.6086	-227.394	0.330243	-78.3493	-203.423	26.354	-72.3005	-216.066	42.6919	-38.0291	-211.433	-11.5582	-64.5988	-193.529	12.9997	-64.5131	-207.808	30.1498	-33.6772	-214.106	-34.4877	-44.846	-199.369	-39.4266	-71.3626	-189.895	-38.6581	-92.1806	-253.225	-26.5366	-15.0228	-264.099	-17.8651	17.7591	-282.446	3.15607	-13.5744	
32	0.266667	-278.875	43.0538	-8.72639	-283.661	55.4983	-34.1849	-288.532	66.1123	-66.2544	-287.569	72.3077	-89.6529	-247.895	19.4038	-81.9798	-217.095	36.0025	-85.4987	-214.452	50.846	-52.4076	-226.143	2.84493	-74.8755	-199.125	28.0342	-70.573	-214.725	41.9222	-35.6621	-212.041	-6.81968	-66.7213	-189.863	15.156	-62.7218	-205.109	29.54	-32.1893	-211.446	-32.6714	-46.9277	-199.374	-32.9024	-72.5158	-184.727	-33.6559	-95.4482	-252.133	-23.7767	-17.0501	-263.999	-14.768	16.3379	-276.889	4.09354	-11.3467	
33	0.275	-284.521	52.707	-5.92436	-287.479	65.252	-32.6668	-291.49	76.2846	-66.3562	-290.816	85.6905	-84.0604	-248.173	27.5388	-79.5691	-219.534	44.3365	-82.689	-219.21	58.0463	-48.4924	-229.292	15.2465	-76.6425	-203.58	37.3368	-68.7729	-217.201	48.5746	-33.7696	-214.858	3.37105	-68.2303	-194.734	23.7267	-62.3778	-210.75	35.6439	-29.8765	-214.264	-25.6604	-51.4914	-201.256	-23.8146	-73.6609	-187.612	-28.0294	-93.0533	-258.177	-13.4666	-18.9265	-267.531	-10.1108	11.8546	-282.626	10.9922	-12.7067	
34	0.283333	-285.376	60.9628	-1.46713	-289.078	77.7485	-26.4467	-292.422	88.8948	-56.4193	-292.874	98.3989	-79.6599	-252.734	42.4957	-76.7811	-221.165	59.8807	-75.4291	-220.425	68.6416	-44.6476	-231.478	28.7977	-75.2767	-205.938	51.2212	-62.1303	-224.766	58.508	-26.7952	-217.098	13.0411	-65.3992	-198.521	40.0137	-59.327	-214.442	46.7654	-25.996	-218.667	-12.0809	-45.9892	-204.1	-12.4384	-73.9305	-192.653	-12.213	-95.5376	-260.747	-3.00794	-17.5974	-270.396	-1.30926	17.2116	-284.3	20.5125	-10.3283	
35	0.291667	-285.904	76.4709	7.03712	-288.353	90.821	-21.4849	-289.89	103.986	-48.4139	-290.237	117.454	-70.3353	-253.255	62.2521	-72.785	-222.787	81.6675	-68.786	-221.767	85.6014	-36.9307	-230.613	43.8707	-69.499	-207.958	68.2783	-56.2114	-223.332	74.4217	-20.5074	-218.852	29.1129	-62.2864	-198.593	54.3864	-53.3119	-213.861	60.9727	-22.9928	-222.602	2.15108	-51.0446	-209.412	4.23621	-74.576	-198.016	3.62454	-92.6138	-262.206	8.33894	-17.2819	-272.729	8.16812	17.1895	-285.523	36.5688	-4.42514	
36	0.3	-277.317	99.4711	20.8511	-276.312	117.153	-4.36347	-275.841	135.327	-29.4824	-276.579	155.424	-48.3912	-250.203	88.0401	-60.9837	-219.935	96.9407	-61.1315	-213.955	96.0758	-24.8753	-238.209	68.7557	-62.5091	-206.882	83.7074	-52.4566	-213.964	81.9959	-11.8965	-229.493	48.966	-58.9745	-202.603	64.6818	-53.9413	-213.712	72.3685	-15.7839	-237.278	25.9816	-51.6153	-226.856	28.4685	-74.6634	-217.049	26.1887	-98.499	-269.627	30.6705	-10.2824	-279.885	29.9937	19.7691	-286.473	62.5677	3.99321	
37	0.308333	-254.943	113.287	33.2643	-249.823	136.241	12.291	-243.016	156.296	-8.99774	-237.016	176.602	-24.5844	-242.816	110.841	-52.7149	-211.969	106.392	-53.2602	-203.729	99.1055	-19.579	-244.986	86.836	-55.8787	-208.086	84.6686	-51.8732	-207.905	79.0853	-12.6274	-243.998	65.6213	-58.6679	-210.267	71.383	-54.5438	-211.265	68.2778	-16.1928	-261.938	43.7035	-46.825	-255.12	45.7302	-75.2116	-251.625	51.8269	-97.6988	-280.931	60.7102	-2.16106	-286.89	50.2696	27.1153	-281.695	92.9371	15.5642	
38	0.316667	-233.843	109.293	37.6083	-219.805	134.059	20.6273	-210.525	154.722	-3.93404	-200.156	165.184	-20.2997	-234.969	114.264	-45.8698	-202.379	102.794	-54.7715	-192.038	84.8049	-25.919	-240.353	94.9478	-53.6686	-206.178	78.0704	-55.9248	-200.746	69.9305	-15.1034	-245.355	73.252	-58.156	-214.601	64.6682	-60.5094	-206.401	61.5828	-24.9281	-268.712	53.4549	-46.6403	-267.356	50.3836	-73.3167	-263.885	51.9717	-102.433	-277.239	67.7706	1.64114	-280.255	65.3113	33.074	-267.352	101.023	23.7907	
39	0.325	-218.489	98.7041	34.4222	-202.043	114.177	14.9106	-188.33	135.23	-14.105	-176.787	147.127	-34.9921	-224.111	103.205	-52.7409	-200.587	91.3026	-65.2566	-180.341	71.7948	-38.6118	-234.466	80.9389	-59.9106	-201.885	64.3164	-62.5378	-191.617	54.9131	-28.2526	-242.611	64.9184	-58.9925	-213.298	51.2407	-65.1325	-200.534	46.629	-29.7439	-266.001	43.8343	-47.8298	-263.249	38.6882	-74.9735	-254.025	34.9395	-101.683	-269.759	67.8928	2.31624	-272.229	59.5769	33.0681	-253.002	95.2657	25.007	
40	0.333333	-208.526	102.407	34.1387	-191.716	112.13	10.6603	-176.245	125.125	-17.8322	-163.523	130.803	-39.9056	-224.478	103.965	-53.1823	-200.906	94.5783	-71.2069	-176.934	73.6722	-58.2428	-229.688	82.1177	-59.7909	-198.616	66.7181	-68.8339	-179.828	59.5308	-34.0826	-238.455	61.4515	-59.84	-209.103	51.7877	-69.6637	-191.246	49.1935	-34.5651	-255.004	43.1295	-45.7598	-247.791	32.9131	-73.9665	-232.433	31.5577	-97.9439	-264.988	63.8761	-2.18749	-267.404	60.1975	33.0727	-250.421	93.2027	23.2034	
41	0.341667	-213.356	112.954	39.832	-192.143	120.905	19.7021	-173.536	133.94	-14.2682	-164.149	133.682	-36.7824	-230.429	120.741	-43.9093	-215.543	118.655	-71.4261	-186.338	100.837	-77.2028	-227.369	94.5027	-58.035	-193.897	84.1141	-67.5769	-175.904	70.5402	-33.5468	-233.715	71.3564	-57.3011	-202.348	68.1927	-66.5537	-183.609	65.219	-34.7525	-244.395	47.4187	-47.8615	-228.236	44.1451	-73.0859	-206.041	41.1477	-93.2859	-261.418	71.2158	0.205016	-265.476	67.1952	33.3558	-251.401	101.192	26.9741	
42	0.35	-221.917	119.629	41.4289	-201.977	139.381	26.1146	-186.272	148.386	-5.93145	-173.148	153.292	-24.6719	-239.87	130.77	-37.6108	-230.441	133.125	-70.2414	-207.33	129.353	-93.9629	-223.234	103.781	-54.7117	-188.819	96.468	-59.7612	-174.12	92.0487	-20.5601	-225.045	79.0117	-53.2406	-191.692	75.8092	-57.6297	-180.435	78.9171	-23.5239	-233.615	52.9686	-45.3304	-216.929	53.3498	-69.9436	-197.324	55.5462	-88.5481	-258.987	72.5127	3.41381	-264.396	65.1224	34.4625	-255.989	101.914	27.8939	
43	0.358333	-229.476	120.004	43.9233	-214.158	138.938	26.2993	-199.346	158.209	3.57068	-185.486	170.906	-19.1878	-243.049	125.002	-40.7994	-240.089	136.24	-64.9894	-231.523	137.274	-93.4585	-222.636	101.656	-51.4374	-183.418	103.369	-53.2343	-177.637	95.1235	-16.0343	-216.474	81.2052	-54.6281	-186.863	81.5412	-54.5166	-181.081	80.1675	-15.9281	-228.91	56.6431	-47.4544	-215.061	54.793	-70.0974	-200.974	57.9652	-89.8881	-256.267	70.4265	-1.48703	-263.853	57.0426	30.6882	-258.385	98.9718	26.7369	
44	0.366667	-237.675	109.672	38.7408	-225.052	138.209	22.9494	-213.008	160.266	-4.99965	-201.087	169.382	-20.6802	-245.023	117.013	-45.5693	-243.188	122.623	-71.354	-238.011	124.613	-102.501	-223.695	95.0176	-54.7622	-187.004	92.8256	-57.6227	-181.171	89.1632	-16.1476	-214.565	70.4596	-58.5179	-185.738	73.0311	-55.25	-185.539	72.6743	-15.9815	-230.826	46.3767	-45.9115	-217.641	45.3356	-75.4002	-206.318	51.4775	-98.3467	-257.307	59.426	-4.61392	-265.85	54.0624	26.086	-263.413	92.5218	16.4796	
45	0.375	-234.21	93.9814	27.5408	-220.044	116.589	9.27844	-206.633	133.274	-12.8542	-194.858	147.261	-26.4582	-245.542	97.9663	-56.4245	-242.383	102.862	-84.2203	-240.013	102.657	-112.093	-227.339	70.6823	-67.1517	-192.406	58.6391	-65.1012	-188.694	57.4777	-27.3476	-227.099	49.4826	-65.5992	-196.952	43.4375	-64.0545	-197.443	44.7893	-23.6126	-247.709	26.6989	-57.5805	-239.638	22.942	-81.6755	-233.202	26.2828	-104.361	-267.765	41.5142	-11.2136	-276.014	42.0846	22.1914	-264.118	77.0163	11.0093	
46	0.383333	-217.99	61.4909	16.0529	-197.019	74.6815	0.827595	-180.645	87.5617	-23.2057	-166.609	94.6284	-44.8057	-235.882	70.6286	-63.3519	-235.951	72.7386	-89.7221	-237.212	70.0119	-120.108	-233.3	39.5755	-76.9034	-205.135	13.4886	-77.647	-202.932	10.0178	-39.8128	-246.269	13.7532	-73.8545	-216.648	-0.693128	-74.4654	-213.607	-1.98752	-37.1782	-271.713	9.16444	-63.6209	-268.588	6.87424	-84.6487	-264.871	4.12439	-110.598	-273.414	32.7217	-17.1243	-279	29.6587	18.0008	-252.789	58.6072	4.61877	
47	0.391667	-208.154	25.3603	8.93512	-189.441	27.5039	-11.5859	-163.856	37.7694	-36.1448	-151.909	36.1125	-58.0905	-229.88	42.1481	-73.9901	-228.419	43.6954	-97.2968	-231.858	44.4101	-127.699	-243.209	12.7617	-80.9229	-229.47	-22.4688	-86.8732	-220.824	-25.1908	-47.04	-259.637	-8.16101	-80.6897	-241.724	-31.2958	-80.2509	-235.038	-32.9024	-42.5731	-285.238	-1.20585	-62.4242	-289.686	-6.37988	-89.2366	-291.013	-7.73235	-115.426	-275.156	19.2421	-17.4102	-276.17	24.0768	12.2158	-244.036	38.6457	-1.41987	
